<mxfile host="app.diagrams.net" modified="2022-07-06T06:11:15.069Z" agent="5.0 (Macintosh; Intel Mac OS X 10_15_7) AppleWebKit/537.36 (KHTML, like Gecko) Chrome/103.0.0.0 Safari/537.36" etag="yXF1ta1P-T2eFZ9Y_nt1" version="20.0.1" type="github">
  <diagram id="hKjajqVnWgzHe-l0kxwQ" name="Page-1">
    <mxGraphModel dx="1002" dy="594" grid="1" gridSize="10" guides="1" tooltips="1" connect="1" arrows="1" fold="1" page="1" pageScale="1" pageWidth="850" pageHeight="1100" math="0" shadow="0">
      <root>
        <mxCell id="0" />
        <mxCell id="1" parent="0" />
        <mxCell id="Sl32whzoUEuvGMI_dxO0-1" value="Knowledge Graph" style="shape=cylinder3;whiteSpace=wrap;html=1;boundedLbl=1;backgroundOutline=1;size=15;fillColor=#647687;strokeColor=#314354;fontColor=#ffffff;" vertex="1" parent="1">
          <mxGeometry x="120" y="270" width="630" height="80" as="geometry" />
        </mxCell>
        <mxCell id="Sl32whzoUEuvGMI_dxO0-2" value="Semantic search&lt;br&gt;(NLP)" style="rounded=0;whiteSpace=wrap;html=1;fillColor=#f8cecc;strokeColor=#b85450;" vertex="1" parent="1">
          <mxGeometry x="170" y="120" width="120" height="60" as="geometry" />
        </mxCell>
        <mxCell id="Sl32whzoUEuvGMI_dxO0-3" value="Other Graph Service" style="rounded=0;whiteSpace=wrap;html=1;fillColor=#dae8fc;strokeColor=#6c8ebf;" vertex="1" parent="1">
          <mxGeometry x="520" y="120" width="120" height="60" as="geometry" />
        </mxCell>
        <mxCell id="Sl32whzoUEuvGMI_dxO0-4" value="" style="shape=flexArrow;endArrow=classic;html=1;rounded=0;entryX=0.5;entryY=1;entryDx=0;entryDy=0;exitX=0.176;exitY=-0.006;exitDx=0;exitDy=0;exitPerimeter=0;" edge="1" parent="1" source="Sl32whzoUEuvGMI_dxO0-1" target="Sl32whzoUEuvGMI_dxO0-2">
          <mxGeometry width="50" height="50" relative="1" as="geometry">
            <mxPoint x="230" y="260" as="sourcePoint" />
            <mxPoint x="255" y="220" as="targetPoint" />
          </mxGeometry>
        </mxCell>
        <mxCell id="Sl32whzoUEuvGMI_dxO0-5" value="" style="shape=flexArrow;endArrow=classic;html=1;rounded=0;entryX=0.5;entryY=1;entryDx=0;entryDy=0;exitX=0.176;exitY=-0.006;exitDx=0;exitDy=0;exitPerimeter=0;" edge="1" parent="1">
          <mxGeometry width="50" height="50" relative="1" as="geometry">
            <mxPoint x="580.3800000000001" y="269.52" as="sourcePoint" />
            <mxPoint x="579.5" y="180" as="targetPoint" />
          </mxGeometry>
        </mxCell>
        <mxCell id="Sl32whzoUEuvGMI_dxO0-6" value="Source meta Data" style="rounded=0;whiteSpace=wrap;html=1;fillColor=#d5e8d4;strokeColor=#82b366;" vertex="1" parent="1">
          <mxGeometry x="120" y="440" width="630" height="60" as="geometry" />
        </mxCell>
      </root>
    </mxGraphModel>
  </diagram>
</mxfile>
